<?xml version="1.0" standalone="no"?>
<!DOCTYPE svg PUBLIC "-//W3C//DTD SVG 20010904//EN"
 "http://www.w3.org/TR/2001/REC-SVG-20010904/DTD/svg10.dtd">
<svg version="1.0" xmlns="http://www.w3.org/2000/svg"
 width="260.000000pt" height="260.000000pt" viewBox="0 0 260.000000 260.000000"
 preserveAspectRatio="xMidYMid meet">
<metadata>
Created by potrace 1.14, written by Peter Selinger 2001-2017
</metadata>
<g transform="translate(0.000000,260.000000) scale(0.100000,-0.100000)"
fill="#000000" stroke="none">
<path d="M2125 2581 c-88 -40 -137 -119 -137 -220 l0 -66 -115 -85 c-149 -110
-138 -105 -184 -84 -62 27 -152 18 -210 -22 -81 -56 -116 -144 -95 -238 l13
-54 -151 -149 -151 -150 -50 12 c-62 14 -123 4 -171 -29 l-37 -25 -106 52
c-58 29 -109 56 -112 61 -4 5 -7 25 -7 46 -1 68 -53 145 -121 181 -150 78
-331 -32 -333 -201 -1 -187 218 -292 373 -179 13 10 36 2 125 -42 101 -50 109
-56 111 -84 4 -93 49 -163 131 -206 112 -57 266 5 312 127 14 35 15 122 2 154
-9 23 1 36 142 176 139 139 153 150 176 142 41 -15 126 -11 167 8 87 42 133
120 136 233 l2 54 127 94 127 94 33 -17 c48 -25 142 -23 194 4 108 56 155 186
106 294 -23 51 -47 77 -98 108 -50 31 -143 36 -199 11z m125 -146 c82 -43 22
-166 -64 -131 -57 23 -60 106 -6 133 32 16 35 16 70 -2z m-595 -470 c14 -13
25 -36 25 -50 0 -34 -42 -75 -76 -75 -36 0 -74 36 -74 70 0 70 77 104 125 55z
m-1212 -307 c35 -41 12 -111 -40 -121 -48 -9 -92 26 -92 73 0 68 86 100 132
48z m604 -300 c47 -44 13 -128 -52 -128 -12 0 -34 9 -49 21 -34 27 -35 71 -1
104 30 31 71 32 102 3z"/>
<path d="M2013 1816 l-28 -24 -1 -814 c-1 -447 -2 -816 -3 -819 0 -3 -34 -6
-75 -6 l-74 -1 0 590 -1 590 -22 24 c-22 24 -25 24 -204 24 -169 0 -183 -1
-203 -20 -12 -12 -22 -28 -23 -38 -1 -9 -2 -273 -4 -587 -1 -314 -3 -573 -4
-577 0 -4 -34 -6 -73 -5 l-73 2 -1 265 c-2 331 0 306 -24 330 -19 19 -33 20
-205 20 -177 0 -185 -1 -205 -22 -11 -12 -20 -27 -21 -32 0 -6 -1 -135 -2
-286 l-2 -275 -75 -1 -76 -1 0 439 0 439 -22 22 c-22 21 -30 22 -198 22 -96 0
-183 -3 -194 -7 -42 -15 -43 -34 -42 -463 0 -225 -1 -420 -4 -433 -4 -19 -11
-22 -55 -22 -40 0 -55 -5 -74 -25 -32 -31 -32 -69 0 -100 l24 -25 1251 0 1251
0 24 25 c30 30 32 64 4 99 -18 23 -28 26 -78 26 l-58 0 -1 788 c0 433 -1 802
-1 820 -1 21 -10 42 -25 57 -23 23 -28 24 -200 24 -171 0 -177 0 -203 -23z
m277 -896 l0 -767 -75 -1 c-41 -1 -75 2 -76 6 -1 10 -1 1493 0 1513 1 14 14
17 76 16 l75 0 0 -767z m-610 138 c1 -158 1 -476 0 -784 l0 -122 -75 0 -75 0
0 539 0 539 75 0 75 0 0 -172z m-1219 -148 c1 -21 1 -721 0 -741 -1 -14 -14
-17 -76 -17 l-75 -1 0 384 c0 247 4 385 10 387 6 2 39 3 75 3 51 0 65 -3 66
-15z m609 -525 l0 -234 -75 1 -75 1 0 234 0 233 75 0 75 0 0 -235z"/>
</g>
</svg>
